<?xml version="1.0" encoding="utf-8"?>
<svg version="1.1" id="Layer_1" xmlns="http://www.w3.org/2000/svg" xmlns:xlink="http://www.w3.org/1999/xlink" x="0px" y="0px"
	 viewBox="0 0 320.1 320.1" style="enable-background:new 0 0 320.1 320.1;" xml:space="preserve">
<style type="text/css">
	.st0{fill:#FFFFFF;}
</style>
<path class="st0" d="M295.3,295.3H24.8V108.8l-10-3v199.5h290.5V192.6l-10-3V295.3z M14.8,14.8v75.5l10,3V24.8h270.5v149.3l10,3
	V14.8H14.8z"/>
<g>
	<path class="st0" d="M82.1,136.5c-5.9,0-10.4,2.1-13.9,5.6v-20.7l-19.7-5.9v87.7h17.8l0.5-6.3c3.7,4.7,8.7,7.5,15.4,7.5
		c15.4,0,24.7-14,24.7-34.8C106.9,149.5,97.7,136.5,82.1,136.5z M77.5,188.6c-7,0-11.8-6.2-11.8-15.3v-5c0-10.8,4.6-16.3,11.7-16.3
		c8.1,0,10.8,7.4,10.8,17.5C88.1,180.7,85.4,188.6,77.5,188.6z"/>
	<rect x="116.6" y="116" class="st0" width="19.7" height="87.7"/>
	<path class="st0" d="M204,163.2c-2.9-17.3-15.5-26.2-29-26.2c-8.6,0-16.9,3.6-22.5,10.7c-4.4,5.6-7.2,13.3-7.2,23.1
		c0,10.2,2.6,18,6.9,23.5c5.5,7,13.7,10.4,22.9,10.4c14.1,0,26.2-8.2,28.9-26c0.4-2.5,0.6-5.1,0.6-7.9
		C204.6,168.1,204.4,165.6,204,163.2z M182.8,185.1c-1.9,2.8-4.6,4-7.9,4c-1.2,0-2.4-0.2-3.5-0.6h0c-4.6-1.7-7.3-7.1-7.3-17.8
		c0-10.4,2.7-15.7,7.1-17.5c1.1-0.5,2.4-0.7,3.7-0.7c3.3,0,6.1,1.3,8,4.2v0c2,2.9,3.1,7.4,3.1,13.9
		C186.1,177.5,184.9,182.2,182.8,185.1z"/>
	<path class="st0" d="M231.2,170.4l0.3,0.1v-0.1L231.2,170.4z"/>
	<path class="st0" d="M271.6,182.6c-3,14.7-12.2,21.6-29.1,21.6c-15,0-27.7-8.9-29.8-28.2c-0.2-1.8-0.3-3.7-0.3-5.7
		c0-1.9,0.1-3.7,0.3-5.4c2.1-18.7,15.4-28.4,29.6-28.4c15.2,0,25.5,7.4,29,21.9l-17.1,5.1c-1.5-8.1-6-11.4-11.9-11.4
		c-5.9,0-10.9,5.1-10.9,18.2v0.1l-0.3,0.1l0.3,0.1c0.1,13,5,18.1,10.9,18.1c6.6,0,10.6-3.4,11.9-11.2L271.6,182.6z"/>
</g>
</svg>
